<svg xmlns="http://www.w3.org/2000/svg" viewBox="0 0 630 630">
  <rect width="630" height="630" fill="#f7df1e"/>
  <path d="M423.2 492.2c13.2 21.6 30.3 37.4 60.6 37.4 25.4 0 41.6-12.7 41.6-30.3 0-21-16.6-28.4-44.5-40.6l-15.3-6.6c-44.3-18.8-73.7-42.4-73.7-92.3 0-45.9 35-80.9 89.7-80.9 38.9 0 66.8 13.5 86.9 48.9l-47.5 30.6c-10.4-18.8-21.6-26.2-39.4-26.2-17.9 0-29.3 11.4-29.3 26.2 0 18.3 11.4 25.6 37.8 36.8l15.3 6.6c52.1 22.3 81.4 44.5 81.4 95.6 0 54.7-43 84.6-100.8 84.6-56.4 0-92.7-26.9-110.4-62.1l48.1-28zm-209.7 5c9.1 16.2 17.5 29.8 37.4 29.8 19.1 0 31.2-7.5 31.2-36.6V288h58.2v204.6c0 60.3-35.3 87.8-86.8 87.8-46.6 0-73.7-24.1-87.6-53.5l47.6-29.6z"/>
</svg>
